<svg width="15" height="17" viewBox="0 0 15 17" fill="none" xmlns="http://www.w3.org/2000/svg">
<path d="M2.943 2.28296H12.094C12.6093 2.28296 13.1035 2.48767 13.4679 2.85205C13.8323 3.21643 14.037 3.71064 14.037 4.22596V5.92596H1V4.22596C1 3.71064 1.20471 3.21643 1.56909 2.85205C1.93347 2.48767 2.42768 2.28296 2.943 2.28296V2.28296Z" stroke="#00CE7C" stroke-width="1.8" stroke-miterlimit="10"/>
<path d="M12.0099 15.2219L3.04688 15.2219C2.50663 15.2219 1.98851 15.0073 1.6065 14.6253C1.22449 14.2433 1.00988 13.7252 1.00988 13.1849L1.00988 5.91492L14.0469 5.91492L14.0469 13.1849C14.0469 13.7252 13.8323 14.2433 13.4503 14.6253C13.0682 15.0073 12.5501 15.2219 12.0099 15.2219V15.2219Z" stroke="#00CE7C" stroke-width="1.8" stroke-miterlimit="10"/>
<path d="M3.97461 1V2.143" stroke="#00CE7C" stroke-width="1.8" stroke-miterlimit="10" stroke-linecap="round"/>
<path d="M11.0625 1V2.143" stroke="#00CE7C" stroke-width="1.8" stroke-miterlimit="10" stroke-linecap="round"/>
<path d="M9.78755 9.12402L6.89855 12.013L5.26855 10.383" stroke="#00CE7C" stroke-width="1.8" stroke-linecap="round" stroke-linejoin="round"/>
</svg>
