<svg width="12" height="12" viewBox="0 0 12 12" fill="none" xmlns="http://www.w3.org/2000/svg">
<path d="M11.4079 4.047L8.31449 3.68982C8.22499 3.67867 8.13973 3.6437 8.06684 3.58827C7.99395 3.53284 7.93587 3.45879 7.89815 3.37319L6.62329 0.416358C6.57065 0.292435 6.48477 0.18714 6.37605 0.113238C6.26733 0.0393355 6.14045 0 6.01078 0C5.88111 0 5.75422 0.0393355 5.64551 0.113238C5.53679 0.18714 5.45091 0.292435 5.39827 0.416358L4.11049 3.37319C4.07313 3.45944 4.0149 3.534 3.94157 3.58953C3.86823 3.64506 3.78232 3.67963 3.6923 3.68982L0.60069 4.047C0.471893 4.06054 0.34964 4.11294 0.248819 4.19784C0.147999 4.28274 0.072964 4.39647 0.0328523 4.52517C-0.00725942 4.65387 -0.0107163 4.79199 0.0229028 4.92271C0.0565218 5.05342 0.125766 5.1711 0.222201 5.2614L2.51991 7.45272C2.58769 7.51615 2.6385 7.59697 2.66731 7.68719C2.69612 7.77742 2.70196 7.87394 2.68423 7.96724L2.0528 11.1529C2.02689 11.2859 2.03821 11.4239 2.08542 11.5503C2.13262 11.6768 2.2137 11.7863 2.31894 11.8658C2.42417 11.9453 2.54909 11.9913 2.67872 11.9984C2.80835 12.0055 2.93719 11.9734 3.04979 11.9058L5.75184 10.2956C5.83119 10.2501 5.92025 10.2262 6.01078 10.2262C6.1013 10.2262 6.19036 10.2501 6.26972 10.2956L8.97177 11.9058C9.08438 11.9737 9.21334 12.006 9.34313 11.9991C9.47292 11.9921 9.59803 11.9461 9.70343 11.8666C9.80882 11.7871 9.89001 11.6774 9.93724 11.5508C9.98448 11.4242 9.99574 11.286 9.96968 11.1529L9.33825 7.96724C9.31516 7.87524 9.3171 7.77833 9.34385 7.68742C9.3706 7.59652 9.4211 7.51523 9.48965 7.45272L11.7874 5.2614C11.8807 5.16965 11.9471 5.05201 11.9789 4.92224C12.0107 4.79247 12.0065 4.65592 11.9668 4.52855C11.9271 4.40118 11.8535 4.28826 11.7547 4.20299C11.6559 4.11772 11.536 4.06361 11.4089 4.047" fill="#FFBB00"/>
</svg>
